<?xml version="1.0" encoding="UTF-8"?>
<svg id="z" xmlns="http://www.w3.org/2000/svg" version="1.1" viewBox="0 0 508.3 163.6">
  <defs>
    <style>
      .cls-1 {
        fill: #2a465f;
      }

      .cls-1, .cls-2 {
        stroke-width: 0px;
      }

      .cls-2 {
        fill: #0070ff;
      }
    </style>
  </defs>
  <path class="cls-1" d="M35.3,138.6v-18.9h40.3c1.3,0,2.4-.3,3.5-.8,1-.5,1.8-1.3,2.4-2.3.6-1,.9-2.1.9-3.2s-.3-2.4-.9-3.4-1.4-1.8-2.4-2.3c-1-.6-2.2-.9-3.5-.9h-15.5c-5.3,0-10.1-.8-14.3-2.5-4.3-1.7-7.7-4.4-10.2-8.1-2.5-3.7-3.8-8.6-3.8-14.7s1.2-8.9,3.5-12.7,5.5-6.9,9.4-9.2,8.3-3.5,13-3.5h38.7v18.9h-36.6c-1.6,0-3,.5-4.3,1.6s-1.9,2.5-1.9,4.2.6,3.2,1.8,4.3,2.6,1.7,4.4,1.7h15.5c5.9,0,11.1.9,15.4,2.7s7.7,4.6,10,8.3c2.4,3.8,3.6,8.8,3.6,14.9s-1.2,9.1-3.6,13c-2.4,3.9-5.6,7.1-9.6,9.4-4,2.3-8.5,3.5-13.4,3.5h-42.4Z"/>
  <path class="cls-2" d="M132.8,46.1c-3.8,0-7.1-1.4-9.8-4.1s-4.1-6-4.1-9.8,1.4-7,4.1-9.8c2.8-2.8,6-4.1,9.8-4.1s7,1.4,9.8,4.1c2.8,2.8,4.1,6,4.1,9.8s-1.4,7-4.1,9.8-6,4.1-9.8,4.1Z"/>
  <rect class="cls-1" x="121.6" y="56" width="22.4" height="82.6"/>
  <path class="cls-1" d="M164.8,138.6v-49.1c0-6.5,1.6-12.4,4.7-17.8,3.1-5.4,7.6-9.7,13.5-12.9,5.9-3.2,13-4.8,21.3-4.8s7.7.5,11.1,1.4,6.6,2.2,9.5,4c2.9,1.7,5.4,3.8,7.6,6.2h.2c2.3-2.4,4.9-4.4,7.8-6.2s6.1-3,9.6-4c3.4-.9,7.2-1.4,11.2-1.4,8.3,0,15.4,1.6,21.3,4.8,5.9,3.2,10.4,7.5,13.5,12.9,3.1,5.4,4.7,11.3,4.7,17.8v49.1h-22.2v-49.1c0-3-.8-5.8-2.4-8.3-1.6-2.5-3.6-4.5-6.2-6-2.6-1.5-5.5-2.3-8.8-2.3s-6,.8-8.7,2.3c-2.6,1.5-4.8,3.5-6.3,6-1.6,2.5-2.4,5.2-2.4,8.3v49.1h-22.2v-49.1c0-3-.8-5.8-2.4-8.3-1.6-2.5-3.6-4.5-6.2-6-2.6-1.5-5.5-2.3-8.7-2.3s-6,.8-8.7,2.3c-2.6,1.5-4.8,3.5-6.3,6-1.6,2.5-2.4,5.2-2.4,8.3v49.1h-22.2,0Z"/>
  <path class="cls-2" d="M332.9,46.1c-3.8,0-7-1.4-9.8-4.1s-4.1-6-4.1-9.8,1.4-7,4.1-9.8c2.8-2.8,6-4.1,9.8-4.1s7,1.4,9.8,4.1c2.8,2.8,4.1,6,4.1,9.8s-1.4,7-4.1,9.8-6,4.1-9.8,4.1Z"/>
  <rect class="cls-1" x="321.8" y="56" width="22.4" height="82.6"/>
  <path class="cls-2" d="M458.1,46.1c-3.8,0-7-1.4-9.8-4.1s-4.1-6-4.1-9.8,1.4-7,4.1-9.8c2.8-2.8,6-4.1,9.8-4.1s7,1.4,9.8,4.1,4.1,6,4.1,9.8-1.4,7-4.1,9.8-6,4.1-9.8,4.1Z"/>
  <rect class="cls-1" x="447" y="56" width="22.4" height="82.6"/>
  <path class="cls-1" d="M366.6,114.7l30.9-39.8h-33.2v-18.9s50.2,0,50.2,0c6.1,0,11,4.9,11,11h0c0,4.6-1.5,9.2-4.4,12.8l-30.9,39.8h36.7v19h-53.8c-6.1,0-11.1-5-11-11.1h0c0-4.7,1.6-9.2,4.4-12.8h0Z"/>
</svg>