<?xml version="1.0" encoding="UTF-8"?>
<svg id="Layer_2" data-name="Layer 2" xmlns="http://www.w3.org/2000/svg" viewBox="0 0 720 471.999">
  <defs>
    <style>
      .cls-1 {
        fill: #00b7a4;
      }

      .cls-1, .cls-2 {
        stroke-width: 0px;
      }

      .cls-2 {
        fill: #2a465f;
      }
    </style>
  </defs>
  <circle class="cls-1" cx="427.294" cy="326.641" r="67.294"/>
  <path class="cls-2" d="M292.706,266.348c33.246,0,60.294,27.048,60.294,60.294s-27.048,60.294-60.294,60.294-60.294-27.048-60.294-60.294,27.048-60.294,60.294-60.294h0ZM292.706,259.348c-37.165,0-67.294,30.128-67.294,67.294s30.128,67.294,67.294,67.294,67.294-30.128,67.294-67.294-30.128-67.294-67.294-67.294h0Z"/>
  <path class="cls-2" d="M427.294,131.76c33.246,0,60.294,27.048,60.294,60.294s-27.048,60.294-60.294,60.294-60.294-27.048-60.294-60.294,27.048-60.294,60.294-60.294h0ZM427.294,124.76c-37.165,0-67.294,30.129-67.294,67.294s30.128,67.294,67.294,67.294,67.294-30.128,67.294-67.294-30.128-67.294-67.294-67.294h0Z"/>
  <circle class="cls-1" cx="292.706" cy="192.054" r="67.294" transform="translate(-50.071 263.226) rotate(-45)"/>
</svg>