<?xml version="1.0" encoding="UTF-8"?>
<svg id="Layer_2" data-name="Layer 2" xmlns="http://www.w3.org/2000/svg" viewBox="0 0 720 720">
  <defs>
    <style>
      .cls-1 {
        fill: #2a465f;
      }

      .cls-1, .cls-2 {
        stroke-width: 0px;
      }

      .cls-2 {
        fill: #0070ff;
      }
    </style>
  </defs>
  <path class="cls-2" d="M360,439.418c71.428,0,129.539-46.138,129.539-102.849v-143.989c0-56.711-58.111-102.849-129.539-102.849s-129.539,46.138-129.539,102.849v143.989c0,56.711,58.111,102.849,129.539,102.849ZM282.277,192.581c0-34.033,34.859-61.709,77.723-61.709s77.723,27.677,77.723,61.709v143.989c0,34.033-34.859,61.709-77.723,61.709s-77.723-27.677-77.723-61.709v-143.989Z"/>
  <rect class="cls-2" x="241.167" y="124.243" width="248.371" height="280.664" rx="110.675" ry="110.675"/>
  <path class="cls-1" d="M593.174,308.104h-.07c.047.583.07,1.178.07,1.772,0,119.8-90.858,218.704-207.265,231.647v78.522h103.627v52.542H230.464v-52.542h103.627v-78.522c-116.407-12.943-207.265-111.847-207.265-231.647,0-.595.023-1.189.07-1.772h-.07v-25.385h51.738v25.385h-.023c.07.723.105,1.458.105,2.204.233,99.814,81.495,180.924,181.355,180.924s181.157-81.145,181.355-180.982c0-.723.035-1.434.093-2.145h-.012v-25.385h51.738v25.385Z"/>
</svg>